<svg width="200" height="200" viewBox="0 0 24 24" fill="none" xmlns="http://www.w3.org/2000/svg" class="logo-svg">
    <style>
        .logo-svg { --logo-color: #25c2a0; }
        @media (prefers-color-scheme: dark) {
            .logo-svg { --logo-color: #25c2a0; }
        }
    </style>
    <path d="M9 19C9 19.8284 9.67157 20.5 10.5 20.5H13.5C14.3284 20.5 15 19.8284 15 19V18H9V19Z" fill="var(--logo-color)"/>
    <path d="M12 16C8.68629 16 6 13.3137 6 10C6 6.68629 8.68629 4 12 4C15.3137 4 18 6.68629 18 10C18 13.3137 15.3137 16 12 16Z" stroke="var(--logo-color)" stroke-width="1.5"/>
    <path d="M12 4C10.8954 4 10 3.10457 10 2V1C10 0.447715 10.4477 0 11 0H13C13.5523 0 14 0.447715 14 1V2C14 3.10457 13.1046 4 12 4Z" fill="var(--logo-color)"/>
    <path d="M9.17157 13.1716C9.58117 12.7619 10.2143 12.5 10.8787 12.5H13.1213C13.7857 12.5 14.4188 12.7619 14.8284 13.1716L15.5355 13.8787C15.9452 14.2883 16.2071 14.9214 16.2071 15.5858V16H7.79289V15.5858C7.79289 14.9214 8.05482 14.2883 8.46447 13.8787L9.17157 13.1716Z" stroke="var(--logo-color)" stroke-width="1.5"/>
    <path d="M12 12.5V10.5" stroke="var(--logo-color)" stroke-width="1.5" stroke-linecap="round"/>
    <path d="M10.5 10.5L9.5 8.5" stroke="var(--logo-color)" stroke-width="1.5" stroke-linecap="round"/>
    <path d="M13.5 10.5L14.5 8.5" stroke="var(--logo-color)" stroke-width="1.5" stroke-linecap="round"/>
</svg>